<?xml version="1.0" encoding="UTF-8" standalone="no"?>
<!-- Created with Inkscape (http://www.inkscape.org/) -->

<svg
   xmlns:dc="http://purl.org/dc/elements/1.1/"
   xmlns:cc="http://creativecommons.org/ns#"
   xmlns:rdf="http://www.w3.org/1999/02/22-rdf-syntax-ns#"
   xmlns:svg="http://www.w3.org/2000/svg"
   xmlns="http://www.w3.org/2000/svg"
   version="1.1"
   width="55.125"
   height="55"
   viewBox="0 0 55.125 55"
   id="svg3871"
   xml:space="preserve"><metadata
     id="metadata3880"><rdf:RDF><cc:Work
         rdf:about=""><dc:format>image/svg+xml</dc:format><dc:type
           rdf:resource="http://purl.org/dc/dcmitype/StillImage" /><dc:title></dc:title></cc:Work></rdf:RDF></metadata><defs
     id="defs3878" /><path
     d="m -13.050848,33.559322 a 25.98517,21.90678 0 1 1 -51.970341,0 25.98517,21.90678 0 1 1 51.970341,0 z"
     transform="matrix(1.015724,0,0,1.2048215,67.149822,-12.932993)"
     id="path2988"
     style="fill:#000000;fill-opacity:1;fill-rule:nonzero;stroke:#000000;stroke-width:2;stroke-linecap:round;stroke-linejoin:round;stroke-miterlimit:4;stroke-opacity:1;stroke-dasharray:none;stroke-dashoffset:0" /><g
     id="dialog-cancel"
     style="fill:#ffffff;fill-opacity:1;display:block"><path
       d="m 27.557,5.053 c -12.43,0 -22.5,10.076 -22.5,22.497 0,12.432 10.07,22.503 22.5,22.503 12.431,0 22.5,-10.071 22.5,-22.503 0,-12.421 -10.07,-22.497 -22.5,-22.497 z m 10.199,28.159 c 1.254,1.256 1.257,3.291 0,4.545 -0.628,0.629 -1.451,0.943 -2.274,0.943 -0.822,0 -1.644,-0.314 -2.27,-0.94 l -5.76,-5.761 -5.76,5.761 c -0.627,0.626 -1.449,0.94 -2.271,0.94 -0.823,0 -1.647,-0.314 -2.275,-0.943 -1.254,-1.254 -1.254,-3.289 0.004,-4.545 l 5.758,-5.758 -5.758,-5.758 c -1.258,-1.254 -1.258,-3.292 -0.004,-4.546 1.255,-1.254 3.292,-1.259 4.546,0 l 5.76,5.759 5.76,-5.759 c 1.252,-1.259 3.288,-1.254 4.544,0 1.257,1.254 1.254,3.292 0,4.546 l -5.758,5.758 5.758,5.758 z"
       id="path3874"
       style="fill:#ffffff;fill-opacity:1;display:inline" /></g></svg>