<?xml version="1.0" encoding="UTF-8" standalone="no"?>
<!-- Created with Inkscape (http://www.inkscape.org/) -->

<svg
   xmlns:dc="http://purl.org/dc/elements/1.1/"
   xmlns:cc="http://creativecommons.org/ns#"
   xmlns:rdf="http://www.w3.org/1999/02/22-rdf-syntax-ns#"
   xmlns:svg="http://www.w3.org/2000/svg"
   xmlns="http://www.w3.org/2000/svg"
   version="1.1"
   width="199.95154"
   height="200.04378"
   id="svg2">
  <defs
     id="defs4" />
  <metadata
     id="metadata7">
    <rdf:RDF>
      <cc:Work
         rdf:about="">
        <dc:format>image/svg+xml</dc:format>
        <dc:type
           rdf:resource="http://purl.org/dc/dcmitype/StillImage" />
        <dc:title></dc:title>
      </cc:Work>
    </rdf:RDF>
  </metadata>
  <g
     transform="matrix(4,0,0,4,-10.024227,-9.975725)"
     id="g2993">
    <g
       transform="translate(0,-997.36218)"
       id="layer1">
      <path
         d="m 325.71429,536.64789 a 95.71429,92.857143 0 1 1 -191.42858,0 95.71429,92.857143 0 1 1 191.42858,0 z"
         transform="matrix(0.07954172,0,0,0.08198916,26.205404,980.86287)"
         id="path2985-5"
         style="fill:#e8e8e8;fill-opacity:1;fill-rule:nonzero;stroke:#e8e8e8;stroke-width:9.5774889;stroke-linecap:round;stroke-linejoin:miter;stroke-miterlimit:4;stroke-opacity:1;stroke-dasharray:none;stroke-dashoffset:0" />
      <path
         d="m 38.500001,1025.3622 3.5,4 7.5,-8"
         id="path3007-1"
         style="fill:none;stroke:#a0a0a2;stroke-width:2.5;stroke-linecap:round;stroke-linejoin:miter;stroke-miterlimit:4;stroke-opacity:1;stroke-dasharray:none" />
      <path
         d="m 325.71429,536.64789 a 95.71429,92.857143 0 1 1 -191.42858,0 95.71429,92.857143 0 1 1 191.42858,0 z"
         transform="matrix(0.07954172,0,0,0.08198916,9.2054044,997.86287)"
         id="path2985"
         style="fill:#e8e8e8;fill-opacity:1;fill-rule:nonzero;stroke:#e8e8e8;stroke-width:9.5774889;stroke-linecap:round;stroke-linejoin:miter;stroke-miterlimit:4;stroke-opacity:1;stroke-dasharray:none;stroke-dashoffset:0" />
      <g
         transform="matrix(0.98697089,0,0,1.1542904,-2.1743033,-159.21392)"
         id="g4004"
         style="stroke:#000000;stroke-opacity:1">
        <path
           d="m 25.962263,1044.032 4,-3.5 -4,-3.5"
           id="path3007-1-7"
           style="fill:none;stroke:#000000;stroke-width:2.5;stroke-linecap:round;stroke-linejoin:miter;stroke-miterlimit:4;stroke-opacity:1;stroke-dasharray:none" />
        <path
           d="m 34.169811,1044.032 -4,-3.5 4,-3.5"
           id="path3007-1-7-1"
           style="fill:none;stroke:#000000;stroke-width:2.5;stroke-linecap:round;stroke-linejoin:miter;stroke-miterlimit:4;stroke-opacity:1;stroke-dasharray:none" />
      </g>
      <path
         d="m 325.71429,536.64789 a 95.71429,92.857143 0 1 1 -191.42858,0 95.71429,92.857143 0 1 1 191.42858,0 z"
         transform="matrix(0.07954172,0,0,0.08198916,9.2054044,963.86287)"
         id="path2985-5-0"
         style="fill:#e8e8e8;fill-opacity:1;fill-rule:nonzero;stroke:#e8e8e8;stroke-width:9.5774889;stroke-linecap:round;stroke-linejoin:miter;stroke-miterlimit:4;stroke-opacity:1;stroke-dasharray:none;stroke-dashoffset:0" />
      <path
         d="m 31.650944,10.481133 a 3.6839623,3.528302 0 1 1 -7.367924,0 3.6839623,3.528302 0 1 1 7.367924,0 z"
         transform="matrix(1.0078129,0,0,1.0522752,-0.68548512,996.83314)"
         id="path4008"
         style="fill:#e8e8e8;fill-opacity:1;fill-rule:nonzero;stroke:#a0a0a0;stroke-width:2.42764616;stroke-linecap:round;stroke-linejoin:miter;stroke-miterlimit:4;stroke-opacity:1;stroke-dasharray:none;stroke-dashoffset:0" />
      <path
         d="m 325.71429,536.64789 a 95.71429,92.857143 0 1 1 -191.42858,0 95.71429,92.857143 0 1 1 191.42858,0 z"
         transform="matrix(0.07954172,0,0,0.08198916,-7.7945959,980.86287)"
         id="path2985-5-2"
         style="fill:#e8e8e8;fill-opacity:1;fill-rule:nonzero;stroke:#e8e8e8;stroke-width:9.5774889;stroke-linecap:round;stroke-linejoin:miter;stroke-miterlimit:4;stroke-opacity:1;stroke-dasharray:none;stroke-dashoffset:0" />
      <path
         d="m 6.7499996,1021.1122 7.5000004,0 0,7.5 -7.5000004,0 z"
         id="path4010"
         style="fill:none;stroke:#a0a0a3;stroke-width:2.5;stroke-linecap:butt;stroke-linejoin:miter;stroke-miterlimit:4;stroke-opacity:1;stroke-dasharray:none" />
    </g>
  </g>
</svg>
