<?xml version="1.0" encoding="UTF-8" standalone="no"?>
<!-- Created with Inkscape (http://www.inkscape.org/) -->

<svg
   xmlns:dc="http://purl.org/dc/elements/1.1/"
   xmlns:cc="http://creativecommons.org/ns#"
   xmlns:rdf="http://www.w3.org/1999/02/22-rdf-syntax-ns#"
   xmlns:svg="http://www.w3.org/2000/svg"
   xmlns="http://www.w3.org/2000/svg"
   version="1.1"
   width="150"
   height="150"
   viewBox="0 0 120 120"
   id="svg2"
   xml:space="preserve"><metadata
     id="metadata22"><rdf:RDF><cc:Work
         rdf:about=""><dc:format>image/svg+xml</dc:format><dc:type
           rdf:resource="http://purl.org/dc/dcmitype/StillImage" /><dc:title></dc:title></cc:Work></rdf:RDF></metadata><defs
     id="defs20" /><g
     transform="translate(11.895048,0.87)"
     id="Layer_x0020_1"
     style="fill:#000000;fill-opacity:1;fill-rule:nonzero;stroke:#000000;stroke-miterlimit:4"><g
       id="g5"
       style="fill:#000000;fill-opacity:1;stroke:#ffffff"><g
         id="g7"
         style="fill:#000000;fill-opacity:1"><path
           d="M 86.068,0 C 61.466,0 56.851,35.041 70.691,35.041 84.529,35.041 110.671,0 86.068,0 z"
           id="path9"
           style="fill:#000000;fill-opacity:1" /><path
           d="M 45.217,30.699 C 52.586,31.149 60.671,2.577 46.821,4.374 32.976,6.171 37.845,30.249 45.217,30.699 z"
           id="path11"
           style="fill:#000000;fill-opacity:1" /><path
           d="M 11.445,48.453 C 16.686,46.146 12.12,23.581 3.208,29.735 -5.7,35.89 6.204,50.759 11.445,48.453 z"
           id="path13"
           style="fill:#000000;fill-opacity:1" /><path
           d="M 26.212,36.642 C 32.451,35.37 32.793,9.778 21.667,14.369 10.539,18.961 19.978,37.916 26.212,36.642 z"
           id="path15"
           style="fill:#000000;fill-opacity:1" /><path
           d="m 58.791,93.913 c 1.107,8.454 -6.202,12.629 -13.36,7.179 C 22.644,83.743 83.16,75.089 79.171,51.386 75.86,31.712 15.495,37.769 8.621,68.552 3.968,89.374 27.774,118.26 52.614,118.26 c 12.22,0 26.315,-11.034 28.952,-25.012 C 83.58,82.589 57.867,86.86 58.791,93.913 z"
           id="newshape"
           style="fill:#000000;fill-opacity:1" /></g></g></g></svg>