<?xml version="1.0" encoding="UTF-8" standalone="no"?>
<!-- Created with Inkscape (http://www.inkscape.org/) -->

<svg
   xmlns:dc="http://purl.org/dc/elements/1.1/"
   xmlns:cc="http://creativecommons.org/ns#"
   xmlns:rdf="http://www.w3.org/1999/02/22-rdf-syntax-ns#"
   xmlns:svg="http://www.w3.org/2000/svg"
   xmlns="http://www.w3.org/2000/svg"
   version="1.1"
   width="100%"
   height="100%"
   viewBox="0 0 55 55"
   id="Layer_1"
   xml:space="preserve"><metadata
     id="metadata11"><rdf:RDF><cc:Work
         rdf:about=""><dc:format>image/svg+xml</dc:format><dc:type
           rdf:resource="http://purl.org/dc/dcmitype/StillImage" /><dc:title></dc:title></cc:Work></rdf:RDF></metadata><defs
     id="defs9" /><g
     id="g3"
     style="fill:#000000"><path
       d="M 27.5,50.1 C 15.2,50.1 5,40 5,27.6 5,15.2 15.2,5.1 27.5,5.1 39.8,5.1 50,15.3 50,27.6 49.8,40 40.4,49.5 28.1,50.1 l -0.6,0 z M 27,34.8 c 1.4,0.1 2.9,-0.7 3.3,-2.1 0.2,-0.8 0.1,-1.8 0.1,-2.6 2.5,-0.6 4.9,-1.9 6.3,-4 1.9,-2.7 1.9,-6.7 0.4,-9.6 -1.9,-3.5 -5.8,-5.1 -9.7,-5.1 -2.1,0 -4.3,0.6 -6.1,1.7 -2.3,1.4 -4.4,3.9 -3.7,6.7 0.2,0.8 0.6,1.5 1.3,1.9 2.4,1.4 4.1,-1.5 5.6,-2.9 0.9,-0.8 2.1,-1.4 3.3,-1.2 1.4,0.2 2.8,1.1 3.3,2.5 0.2,0.5 0.2,1 0.1,1.6 -0.2,1.8 -1.6,2.5 -3.2,3 -1.4,0.4 -3.9,0.6 -4,2.5 h 0 v 4.5 c 0,1.7 1.1,2.8 2.7,3.1 l 0.3,0 z m 0,9.6 c 2,0.1 3.7,-1.5 3.7,-3.5 0,-1.9 -1.6,-3.5 -3.5,-3.5 -1.9,0 -3.7,1.7 -3.5,3.7 0.1,1.7 1.3,2.9 3,3.3 l 0.3,0 z"
       id="path5"
       style="fill:#000000" /></g></svg>