<?xml version="1.0" encoding="UTF-8" standalone="no"?>
<!-- Created with Inkscape (http://www.inkscape.org/) -->

<svg
   xmlns:dc="http://purl.org/dc/elements/1.1/"
   xmlns:cc="http://creativecommons.org/ns#"
   xmlns:rdf="http://www.w3.org/1999/02/22-rdf-syntax-ns#"
   xmlns:svg="http://www.w3.org/2000/svg"
   xmlns="http://www.w3.org/2000/svg"
   version="1.1"
   width="260"
   height="46"
   id="svg2">
  <metadata
     id="metadata12">
    <rdf:RDF>
      <cc:Work
         rdf:about="">
        <dc:format>image/svg+xml</dc:format>
        <dc:type
           rdf:resource="http://purl.org/dc/dcmitype/StillImage" />
        <dc:title></dc:title>
      </cc:Work>
    </rdf:RDF>
  </metadata>
  <defs
     id="defs10" />
  <g
     transform="scale(2,2)"
     id="g4"
     style="fill:#00ffff;fill-opacity:1;stroke:#00a0a0;stroke-opacity:1">
    <path
       d="m 0.5,8.5 0,-4 c 0,-2.0943951 1.9056049,-4 4,-4 l 4,0 0,2 10,0 0,-2 58,0 4,0 c 2.094395,0 4.507965,1.9681383 4,4 l 0,4 -4,0 0,-3 -4,0 0,10 4,0 0,-3 4,0 0,4 c 0,2.094395 -1.905605,4 -4,4 l -4,0 -58,0 -1,0 0,2 -8,0 0,-2 -1,0 -4,0 c -2.0943951,0 -4,-1.905605 -4,-4 l 0,-4 z"
       id="path6"
       style="fill:#00ffff;fill-opacity:1;stroke:#00a0a0;stroke-width:1;stroke-linecap:round;stroke-opacity:1" />
  </g>
  <g
     transform="matrix(2,0,0,2,154,0)"
     id="g3065"
     style="fill:#ffff00;fill-opacity:1;stroke:#a0a000;stroke-opacity:1">
    <path
       d="m 8.5,0.5 44,0 0,20 -44,0 0,-8 0,-1 -6,0 0,3 -2,0 0,-8 2,0 0,3 6,0 0,-1 z"
       id="path3067"
       style="fill:#ff00ff;fill-opacity:1;stroke:#a000a0;stroke-width:1;stroke-linecap:round;stroke-opacity:1" />
  </g>
  <text
     x="6.383234"
     y="29.947266"
     id="text3077"
     xml:space="preserve"
     style="font-size:288px;font-style:normal;font-weight:normal;line-height:125%;letter-spacing:0px;word-spacing:0px;fill:#000000;fill-opacity:1;stroke:none;font-family:Sans"><tspan
       x="6.383234"
       y="29.947266"
       id="tspan3079"
       style="font-size:24px">set pen size</tspan></text>
  <text
     x="197.99402"
     y="29.736328"
     id="text3849"
     xml:space="preserve"
     style="font-size:288px;font-style:normal;font-weight:normal;line-height:125%;letter-spacing:0px;word-spacing:0px;fill:#000000;fill-opacity:1;stroke:none;font-family:Sans"><tspan
       x="197.99402"
       y="29.736328"
       id="tspan3851"
       style="font-size:24px">15</tspan></text>
</svg>
