<?xml version="1.0" encoding="utf-8"?>
<!-- Generator: Adobe Illustrator 17.1.0, SVG Export Plug-In . SVG Version: 6.00 Build 0)  -->
<!DOCTYPE svg PUBLIC "-//W3C//DTD SVG 1.1//EN" "http://www.w3.org/Graphics/SVG/1.1/DTD/svg11.dtd">
<svg version="1.1" id="Layer_1" xmlns="http://www.w3.org/2000/svg" xmlns:xlink="http://www.w3.org/1999/xlink" x="0px" y="0px"
	 viewBox="0 0 162.3 200" enable-background="new 0 0 162.3 200" xml:space="preserve">
<g>
	<g>
		<g>
			<path fill="#7AC143" d="M162.3,18.7c0,0-17.5-17.5-78.3-18.6h-5.7C17.5,1.2,0,18.7,0,18.7s9.8,19.1,7.7,47.4
				c-2.1,28.4-10.3,52.1-2.6,72.2c7.7,20,22.1,37.5,75.8,61.6l0.3,0.1l0.3-0.1c53.7-24.1,68.1-41.6,75.8-61.6
				c7.7-20.1-0.5-43.8-2.6-72.2C152.5,37.8,162.3,18.7,162.3,18.7z"/>
		</g>
	</g>
	<g>
		<path fill="#FFFFFF" d="M94.7,102.3L115.9,81c3.5-3.5,3.3-9.4-0.4-13.2c-3.8-3.8-9.7-3.9-13.2-0.4L81.2,88.7L60,67.4
			c-3.5-3.5-9.4-3.4-13.2,0.4c-3.7,3.7-3.9,9.7-0.4,13.2l21.2,21.3l-20.8,20.9c-3.5,3.5-3.3,9.4,0.4,13.2c3.8,3.8,9.7,3.9,13.2,0.4
			l20.8-20.9l20.8,20.9c3.5,3.5,9.4,3.4,13.2-0.4c3.7-3.7,3.9-9.7,0.4-13.2L94.7,102.3"/>
		<path fill="#FFFFFF" d="M98.8,50.4c0,9.8-7.9,17.7-17.6,17.7c-9.7,0-17.6-7.9-17.6-17.7c0-9.8,7.9-17.7,17.6-17.7
			C90.9,32.7,98.8,40.6,98.8,50.4"/>
	</g>
</g>
</svg>
