<?xml version="1.0" encoding="utf-8"?>
<!-- Generator: Adobe Illustrator 17.1.0, SVG Export Plug-In . SVG Version: 6.00 Build 0)  -->
<!DOCTYPE svg PUBLIC "-//W3C//DTD SVG 1.1//EN" "http://www.w3.org/Graphics/SVG/1.1/DTD/svg11.dtd">
<svg version="1.1" id="Layer_1" xmlns="http://www.w3.org/2000/svg" xmlns:xlink="http://www.w3.org/1999/xlink" x="0px" y="0px"
	 viewBox="0 0 300.5 178.4" enable-background="new 0 0 300.5 178.4" xml:space="preserve">
<g>
	<g>
		<g>
			<path fill="#F18F00" d="M111.9,67.8h-8.1c0-0.2,0-0.4,0-0.6V20.8c0-2.2-1.2-4.3-3.2-5.2c-2.1-1.2-5-0.7-6.9,1.1L79.4,31.8
				c-2.2,2.2-2.2,5.7-0.1,7.8c2.1,2.1,5.6,2.1,7.8-0.1l5-5.3v32.9c0,0.2,0,0.4,0,0.6H83c-3.1,0-5.6,2.6-5.6,5.9
				c0,3.2,2.5,5.9,5.6,5.9h28.9c3.1,0,5.6-2.6,5.6-5.9C117.5,70.4,115,67.8,111.9,67.8"/>
			<path fill="#878787" d="M46.1,93.6c0,0.3-0.2,0.5-0.3,0.5h-1.4c-0.2,0-0.3-0.2-0.3-0.5V0.5C44,0.2,44.2,0,44.4,0h1.4
				c0.2,0,0.3,0.2,0.3,0.5V93.6"/>
			<path fill="#878787" d="M150.9,93.6c0,0.3-0.2,0.5-0.3,0.5h-1.4c-0.2,0-0.4-0.2-0.4-0.5V0.5c0-0.3,0.2-0.5,0.4-0.5h1.4
				c0.2,0,0.3,0.2,0.3,0.5V93.6"/>
			<path fill="#878787" d="M256.5,93.6c0,0.3-0.2,0.5-0.4,0.5h-1.4c-0.2,0-0.3-0.2-0.3-0.5V0.5c0-0.3,0.2-0.5,0.3-0.5h1.4
				c0.2,0,0.4,0.2,0.4,0.5V93.6"/>
		</g>
		<path fill="#0D93D2" d="M203.9,51.4c-0.8,0.8-2.2,0.8-3,0l-16-16c-0.8-0.8-0.8-2.2,0-3l16-16c0.8-0.8,2.2-0.8,3,0l16,16
			c0.8,0.8,0.8,2.2,0,3L203.9,51.4z M199.5,36.9c3-0.3,7,0.2,9.2-2.1c2.1-2,1.8-5-0.2-6.9c-2.2-2.2-5.5-2.1-7.4-0.2
			c-0.6,0.6-0.8,1.6,0,2.4c1.6,1.6,3.1-1.6,4.8,0.1c0.6,0.6,0.7,1.3-0.1,2c-1.1,1.1-5.6,1.2-7,1.3c-1.1,0.1-3.6-0.2-4.6,0.7
			c-0.7,0.7-0.5,1.7,0.3,2.5l5.1,5.1c0.8,0.8,1.8,0.6,2.3,0c0.6-0.6,0.8-1.6,0-2.3L199.5,36.9z"/>
		<path fill="#E71E6C" d="M234.6,77.2c0,1.2-1,2.1-2.1,2.1h-22.6c-1.2,0-2.1-1-2.1-2.1V54.6c0-1.2,1-2.1,2.1-2.1h22.6
			c1.2,0,2.1,1,2.1,2.1V77.2z M221.6,71.8c0,1.3,0.7,2,1.8,2c1.1,0,1.8-0.7,1.8-2.1v-1.5h0.8c1.1,0,1.9-0.5,1.9-1.6
			c0-1.1-0.7-1.6-1.9-1.6h-0.8v-6.9c0-1.6-1.1-2.8-2.8-2.8c-1.2,0-2,0.3-2.6,1.3l-5.5,8.4c-0.3,0.4-0.7,1.1-0.7,1.8
			c0,0.6,0.5,1.5,1.9,1.5h6.1V71.8z M221.6,67h-3.4l3.4-5.8h0V67z"/>
		<path fill="#80BA27" d="M197.7,77.2c0,1.2-1,2.1-2.1,2.1h-22.6c-1.2,0-2.1-1-2.1-2.1V54.6c0-1.2,1-2.1,2.1-2.1h22.6
			c1.2,0,2.1,1,2.1,2.1V77.2z M178.7,69.7c0,2.1,2.3,4.3,5.6,4.3c3.1,0,5.5-2.1,5.5-4.9c0-1.8-0.9-3.3-2.6-4
			c1.2-0.9,1.8-2.1,1.8-3.2c0-2.7-2.2-4.3-4.8-4.3c-2.1,0-5,1.5-5,3.7c0,0.8,0.6,1.6,1.5,1.6c1.6,0,1.7-1.9,3.5-1.9
			c0.7,0,1.3,0.4,1.3,1.2c0,0.9-0.5,1.3-1.3,1.5c-1.4,0.3-1.9,0.7-1.9,1.6c0,1.2,0.8,1.7,1.5,1.7c1.2,0,2.2,0.4,2.2,1.7
			c0,1-0.8,1.9-1.8,1.9c-2.5,0-2-2.5-3.9-2.5C179.6,68.1,178.7,68.8,178.7,69.7z"/>
	</g>
	<g>
		<path fill="#878787" d="M35.6,166.8c-0.1-0.2-0.1-0.4-0.1-0.6c0-0.3,0.2-0.7,0.7-0.7c0.3,0,0.6,0.1,0.8,0.8l1.9,6.2h0l1.9-5.9
			c0.2-0.6,0.3-1,0.9-1c0.5,0,0.7,0.3,0.9,1l1.9,5.9h0l1.9-6.2c0.2-0.6,0.5-0.8,0.8-0.8c0.5,0,0.7,0.4,0.7,0.7
			c0,0.2-0.1,0.4-0.1,0.6l-2.5,7.2c-0.2,0.6-0.4,0.8-0.9,0.8c-0.4,0-0.7-0.2-0.9-0.8l-1.9-6.1h0l-1.9,6.1c-0.2,0.6-0.4,0.8-0.9,0.8
			c-0.4,0-0.7-0.2-0.9-0.8L35.6,166.8z"/>
		<path fill="#878787" d="M51.1,166.8c-0.1-0.2-0.1-0.4-0.1-0.6c0-0.3,0.2-0.7,0.7-0.7c0.3,0,0.6,0.1,0.8,0.8l1.9,6.2h0l1.9-5.9
			c0.2-0.6,0.3-1,0.9-1c0.5,0,0.7,0.3,0.9,1l1.9,5.9h0l1.9-6.2c0.2-0.6,0.5-0.8,0.8-0.8c0.5,0,0.7,0.4,0.7,0.7
			c0,0.2-0.1,0.4-0.1,0.6l-2.5,7.2c-0.2,0.6-0.4,0.8-0.9,0.8c-0.4,0-0.7-0.2-0.9-0.8l-1.9-6.1h0l-1.9,6.1c-0.2,0.6-0.4,0.8-0.9,0.8
			c-0.4,0-0.7-0.2-0.9-0.8L51.1,166.8z"/>
		<path fill="#878787" d="M66.6,166.8c-0.1-0.2-0.1-0.4-0.1-0.6c0-0.3,0.2-0.7,0.7-0.7c0.3,0,0.6,0.1,0.8,0.8l1.9,6.2h0l1.9-5.9
			c0.2-0.6,0.3-1,0.9-1c0.5,0,0.7,0.3,0.9,1l1.9,5.9h0l1.9-6.2c0.2-0.6,0.5-0.8,0.8-0.8c0.5,0,0.7,0.4,0.7,0.7
			c0,0.2-0.1,0.4-0.1,0.6l-2.5,7.2c-0.2,0.6-0.4,0.8-0.9,0.8c-0.4,0-0.7-0.2-0.8-0.8l-1.9-6.1h0l-1.9,6.1c-0.2,0.6-0.4,0.8-0.9,0.8
			c-0.4,0-0.7-0.2-0.9-0.8L66.6,166.8z"/>
		<path fill="#878787" d="M82.9,173.1c0.5,0,0.9,0.4,0.9,0.9c0,0.5-0.4,0.9-0.9,0.9c-0.5,0-0.9-0.4-0.9-0.9
			C82,173.5,82.4,173.1,82.9,173.1z"/>
		<path fill="#878787" d="M92.5,165.6c2.5,0,4,2.2,4,4.6c0,2.4-1.4,4.6-4,4.6c-2.5,0-4-2.2-4-4.6C88.5,167.8,89.9,165.6,92.5,165.6z
			 M92.5,173.6c1.8,0,2.5-1.8,2.5-3.3c0-1.5-0.6-3.3-2.5-3.3c-1.8,0-2.5,1.8-2.5,3.3C90,171.8,90.6,173.6,92.5,173.6z"/>
		<path fill="#878787" d="M100.9,166.4c0-0.5,0.3-0.8,0.7-0.8c0.5,0,0.7,0.3,0.7,0.8v0.4l0,0c0.7-0.9,1.6-1.2,2.5-1.2
			c1.4,0,3.1,0.9,3.1,3.4v5c0,0.5-0.3,0.8-0.7,0.8s-0.7-0.3-0.7-0.8v-4.9c0-1.6-1.1-2.2-2.1-2.2c-1,0-2.1,0.6-2.1,2.2v4.9
			c0,0.5-0.3,0.8-0.7,0.8c-0.5,0-0.7-0.3-0.7-0.8V166.4z"/>
		<path fill="#878787" d="M113.9,170.8c0,1.5,1,2.8,2.7,2.8c2,0,2.5-1.2,3.1-1.2c0.3,0,0.5,0.2,0.5,0.7c0,0.7-1.9,1.9-3.6,1.9
			c-2.9,0-4.1-2.2-4.1-4.6c0-2.4,1.5-4.6,4.1-4.6c2.5,0,3.9,2.2,3.9,4.4c0,0.5-0.2,0.8-0.8,0.8H113.9z M118.9,169.7
			c0-1.3-0.7-2.8-2.4-2.8c-1.9-0.1-2.5,1.4-2.6,2.8H118.9z"/>
		<path fill="#878787" d="M124.9,170.8c-0.4,0-0.6-0.3-0.6-0.6c0-0.4,0.3-0.6,0.6-0.6h3.5c0.4,0,0.6,0.3,0.6,0.6
			c0,0.4-0.3,0.6-0.6,0.6H124.9z"/>
		<path fill="#878787" d="M134.5,170.8c0,1.5,1,2.8,2.7,2.8c2,0,2.5-1.2,3.1-1.2c0.3,0,0.5,0.2,0.5,0.7c0,0.7-1.9,1.9-3.6,1.9
			c-2.9,0-4.1-2.2-4.1-4.6c0-2.4,1.5-4.6,4.1-4.6c2.5,0,3.9,2.2,3.9,4.4c0,0.5-0.2,0.8-0.8,0.8H134.5z M139.5,169.7
			c0-1.3-0.7-2.8-2.4-2.8c-1.9-0.1-2.5,1.4-2.6,2.8H139.5z"/>
		<path fill="#878787" d="M151.2,173.6L151.2,173.6c-0.5,0.8-1.3,1.2-2.4,1.2c-2.4,0-3.9-2.2-3.9-4.6c0-2.4,1.4-4.6,3.9-4.6
			c1.2,0,2,0.7,2.4,1.2h0v-4.4c0-0.5,0.3-0.8,0.7-0.8s0.7,0.3,0.7,0.8V174c0,0.5-0.3,0.8-0.7,0.8s-0.7-0.3-0.7-0.8V173.6z
			 M148.9,166.9c-1.8,0-2.5,1.8-2.5,3.3c0,1.5,0.6,3.3,2.5,3.3c1.8,0,2.5-1.8,2.5-3.3C151.3,168.7,150.7,166.9,148.9,166.9z"/>
		<path fill="#878787" d="M157.6,166.4c0-0.5,0.3-0.8,0.7-0.8s0.7,0.3,0.7,0.8v4.8c0,1.5,0.7,2.4,2.1,2.4c1.4,0,2.1-0.8,2.1-2.4
			v-4.8c0-0.5,0.3-0.8,0.7-0.8s0.7,0.3,0.7,0.8v4.8c0,2.7-1.8,3.6-3.6,3.6c-1.8,0-3.6-1-3.6-3.6V166.4z"/>
		<path fill="#878787" d="M173.3,165.6c1.5,0,2.4,0.5,2.4,1.1c0,0.3-0.3,0.6-0.6,0.6c-0.6,0-0.8-0.5-1.8-0.5c-1.9,0-2.6,1.8-2.6,3.3
			c0,1.5,0.7,3.3,2.6,3.3c1.1,0,1.3-0.5,1.8-0.5c0.3,0,0.6,0.2,0.6,0.6c0,0.6-0.8,1.2-2.4,1.2c-2.8,0-4.1-2.2-4.1-4.6
			C169.3,167.8,170.6,165.6,173.3,165.6z"/>
		<path fill="#878787" d="M187.6,174.1c0,0.5-0.4,0.7-0.7,0.7c-0.3,0-0.7-0.2-0.7-0.7v-0.6h0c-0.6,0.9-1.5,1.4-2.5,1.4
			c-2.5,0-4-2.2-4-4.6c0-2.4,1.4-4.6,4-4.6c1,0,1.8,0.4,2.5,1.2h0v-0.5c0-0.5,0.4-0.7,0.7-0.7c0.3,0,0.7,0.2,0.7,0.7V174.1z
			 M183.7,173.6c1.8,0,2.5-1.8,2.5-3.3c0-1.5-0.6-3.3-2.5-3.3c-1.8,0-2.5,1.8-2.5,3.3C181.2,171.8,181.8,173.6,183.7,173.6z"/>
		<path fill="#878787" d="M192.9,163.7c0-0.5,0.3-0.8,0.7-0.8s0.7,0.3,0.7,0.8v2h0.6c0.5,0,0.7,0.2,0.7,0.6c0,0.4-0.3,0.6-0.7,0.6
			h-0.6v7.1c0,0.5-0.3,0.8-0.7,0.8s-0.7-0.3-0.7-0.8V167h-0.6c-0.5,0-0.7-0.2-0.7-0.6c0-0.4,0.3-0.6,0.7-0.6h0.6V163.7z"/>
		<path fill="#878787" d="M200.5,162.5c0.5,0,0.9,0.4,0.9,0.9c0,0.5-0.4,0.9-0.9,0.9c-0.5,0-0.9-0.4-0.9-0.9
			C199.6,162.9,200,162.5,200.5,162.5z M201.2,174c0,0.5-0.3,0.8-0.7,0.8s-0.7-0.3-0.7-0.8v-7.6c0-0.5,0.3-0.8,0.7-0.8
			s0.7,0.3,0.7,0.8V174z"/>
		<path fill="#878787" d="M209.7,165.6c2.5,0,4,2.2,4,4.6c0,2.4-1.4,4.6-4,4.6c-2.6,0-4-2.2-4-4.6
			C205.7,167.8,207.1,165.6,209.7,165.6z M209.7,173.6c1.8,0,2.5-1.8,2.5-3.3c0-1.5-0.6-3.3-2.5-3.3c-1.8,0-2.5,1.8-2.5,3.3
			C207.2,171.8,207.9,173.6,209.7,173.6z"/>
		<path fill="#878787" d="M218.1,166.4c0-0.5,0.3-0.8,0.7-0.8s0.7,0.3,0.7,0.8v0.4l0,0c0.7-0.9,1.6-1.2,2.5-1.2
			c1.4,0,3.1,0.9,3.1,3.4v5c0,0.5-0.3,0.8-0.7,0.8c-0.5,0-0.7-0.3-0.7-0.8v-4.9c0-1.6-1.1-2.2-2.1-2.2s-2.1,0.6-2.1,2.2v4.9
			c0,0.5-0.3,0.8-0.7,0.8s-0.7-0.3-0.7-0.8V166.4z"/>
		<path fill="#878787" d="M231.3,173.1c0.5,0,0.9,0.4,0.9,0.9c0,0.5-0.4,0.9-0.9,0.9c-0.5,0-0.9-0.4-0.9-0.9
			C230.4,173.5,230.8,173.1,231.3,173.1z"/>
		<path fill="#878787" d="M240.9,165.6c2.5,0,4,2.2,4,4.6c0,2.4-1.4,4.6-4,4.6c-2.5,0-4-2.2-4-4.6
			C236.9,167.8,238.4,165.6,240.9,165.6z M240.9,173.6c1.8,0,2.5-1.8,2.5-3.3c0-1.5-0.6-3.3-2.5-3.3c-1.8,0-2.5,1.8-2.5,3.3
			C238.4,171.8,239.1,173.6,240.9,173.6z"/>
		<path fill="#878787" d="M249.4,166.4c0-0.5,0.3-0.8,0.7-0.8c0.5,0,0.7,0.3,0.7,0.8v0.8h0c0.3-0.7,1.2-1.6,2-1.6
			c0.5,0,0.8,0.3,0.8,0.8c0,0.4-0.3,0.7-0.9,0.8c-0.9,0.2-2,0.8-2,2.6v4.3c0,0.5-0.3,0.8-0.7,0.8c-0.5,0-0.7-0.3-0.7-0.8V166.4z"/>
		<path fill="#878787" d="M265,174.1c0,2.7-1.6,4.3-4.1,4.3c-1.5,0-3.5-0.9-3.5-1.6c0-0.3,0.2-0.7,0.6-0.7c0.7,0,1.3,1.1,3,1.1
			c1.9,0,2.5-1.5,2.5-2.8v-0.8h0c-0.5,0.8-1.3,1.3-2.3,1.3c-2.6,0-4-2.2-4-4.6c0-2.4,1.4-4.6,4-4.6c1,0,1.9,0.6,2.3,1.1h0v-0.4
			c0-0.5,0.4-0.7,0.8-0.7c0.3,0,0.7,0.2,0.7,0.7V174.1z M261.2,173.6c1.8,0,2.5-1.8,2.5-3.3c0-1.5-0.6-3.3-2.5-3.3
			c-1.8,0-2.5,1.8-2.5,3.3C258.7,171.8,259.3,173.6,261.2,173.6z"/>
	</g>
</g>
<g>
	<path fill="#878787" d="M0,124.6c0-1.1,0.2-2.1,0.5-3.1c0.3-1,0.8-1.9,1.4-2.7c0.6-0.8,1.4-1.4,2.3-1.9c0.9-0.5,1.9-0.7,3.1-0.7
		c1.2,0,2.2,0.2,3.1,0.7c0.9,0.5,1.7,1.1,2.3,1.9c0.6,0.8,1.1,1.7,1.4,2.7c0.3,1,0.5,2.1,0.5,3.1c0,1.1-0.2,2.1-0.5,3.1
		c-0.3,1-0.8,1.9-1.4,2.7c-0.6,0.8-1.4,1.4-2.3,1.9c-0.9,0.5-1.9,0.7-3.1,0.7c-1.2,0-2.2-0.2-3.1-0.7c-0.9-0.5-1.7-1.1-2.3-1.9
		c-0.6-0.8-1.1-1.7-1.4-2.7C0.2,126.7,0,125.7,0,124.6z M2.7,124.6c0,0.7,0.1,1.4,0.2,2.1c0.2,0.7,0.4,1.4,0.8,1.9
		c0.4,0.6,0.8,1.1,1.4,1.4c0.6,0.4,1.3,0.6,2.1,0.6c0.8,0,1.5-0.2,2.1-0.6c0.6-0.4,1-0.8,1.4-1.4c0.4-0.6,0.6-1.2,0.8-1.9
		c0.2-0.7,0.2-1.4,0.2-2.1c0-0.7-0.1-1.4-0.2-2.1c-0.2-0.7-0.4-1.4-0.8-1.9c-0.4-0.6-0.8-1.1-1.4-1.4c-0.6-0.4-1.3-0.6-2.1-0.6
		c-0.8,0-1.6,0.2-2.1,0.6c-0.6,0.4-1,0.8-1.4,1.4c-0.4,0.6-0.6,1.2-0.8,1.9C2.8,123.2,2.7,123.9,2.7,124.6z"/>
	<path fill="#878787" d="M27.7,117.7c0-0.4,0.1-0.8,0.4-1.1c0.2-0.3,0.6-0.4,1-0.4c0.4,0,0.7,0.1,1,0.4c0.2,0.3,0.4,0.6,0.4,1.1v0.6
		l0.1,0.1c0.6-0.8,1.3-1.3,2.1-1.7c0.8-0.3,1.6-0.5,2.4-0.5c0.6,0,1.3,0.1,2,0.3c0.7,0.2,1.3,0.6,1.8,1.1c0.6,0.5,1,1.1,1.4,1.9
		c0.4,0.8,0.5,1.8,0.5,2.9v9.1c0,0.5-0.1,0.8-0.4,1.1c-0.2,0.3-0.6,0.4-1,0.4c-0.4,0-0.7-0.1-1-0.4c-0.2-0.3-0.4-0.6-0.4-1.1v-8.9
		c0-0.7-0.1-1.3-0.3-1.8c-0.2-0.5-0.5-0.9-0.9-1.2c-0.4-0.3-0.8-0.6-1.2-0.7c-0.5-0.2-0.9-0.2-1.4-0.2c-0.5,0-0.9,0.1-1.4,0.2
		c-0.5,0.2-0.9,0.4-1.2,0.7c-0.4,0.3-0.7,0.7-0.9,1.2c-0.2,0.5-0.3,1.1-0.3,1.8v8.9c0,0.5-0.1,0.8-0.4,1.1c-0.2,0.3-0.6,0.4-1,0.4
		c-0.4,0-0.7-0.1-1-0.4c-0.2-0.3-0.4-0.6-0.4-1.1V117.7z"/>
	<path fill="#878787" d="M56.4,125.6c0,0.7,0.1,1.3,0.3,2c0.2,0.6,0.5,1.1,1,1.6c0.4,0.5,0.9,0.8,1.5,1.1c0.6,0.3,1.3,0.4,2,0.4
		c0.9,0,1.7-0.1,2.3-0.3c0.6-0.2,1.1-0.5,1.5-0.8c0.4-0.3,0.7-0.5,1-0.8c0.3-0.2,0.5-0.4,0.8-0.4c0.2,0,0.5,0.1,0.7,0.3
		c0.2,0.2,0.3,0.5,0.3,0.9c0,0.3-0.2,0.7-0.6,1.1c-0.4,0.4-0.9,0.8-1.5,1.1c-0.6,0.3-1.3,0.6-2.1,0.8c-0.8,0.2-1.6,0.3-2.4,0.3
		c-1.3,0-2.5-0.2-3.4-0.7c-0.9-0.5-1.7-1.1-2.3-1.9c-0.6-0.8-1.1-1.7-1.4-2.7c-0.3-1-0.4-2-0.4-3.1c0-1.1,0.2-2.2,0.5-3.2
		c0.3-1,0.8-1.9,1.5-2.7c0.6-0.8,1.4-1.4,2.3-1.8c0.9-0.5,2-0.7,3.1-0.7c1.1,0,2.1,0.2,3,0.7c0.9,0.5,1.6,1.1,2.2,1.8
		c0.6,0.8,1.1,1.6,1.4,2.6c0.3,1,0.5,1.9,0.5,2.9c0,0.5-0.1,0.8-0.3,1.1c-0.2,0.2-0.6,0.4-1.2,0.4H56.4z M65.4,123.6
		c0-0.6-0.1-1.2-0.3-1.8c-0.2-0.6-0.4-1.1-0.8-1.6c-0.3-0.5-0.8-0.9-1.4-1.2c-0.6-0.3-1.2-0.5-1.9-0.5c-0.8,0-1.6,0.1-2.1,0.4
		c-0.6,0.3-1,0.7-1.4,1.2c-0.4,0.5-0.6,1-0.8,1.6c-0.2,0.6-0.3,1.2-0.3,1.8H65.4z"/>
	<path fill="#878787" d="M94.7,125.6c0,0.7,0.1,1.3,0.3,2c0.2,0.6,0.5,1.1,1,1.6c0.4,0.5,0.9,0.8,1.5,1.1c0.6,0.3,1.3,0.4,2,0.4
		c0.9,0,1.7-0.1,2.3-0.3c0.6-0.2,1.1-0.5,1.5-0.8c0.4-0.3,0.7-0.5,1-0.8c0.3-0.2,0.5-0.4,0.8-0.4c0.2,0,0.5,0.1,0.7,0.3
		c0.2,0.2,0.3,0.5,0.3,0.9c0,0.3-0.2,0.7-0.6,1.1c-0.4,0.4-0.9,0.8-1.5,1.1c-0.6,0.3-1.3,0.6-2.1,0.8c-0.8,0.2-1.6,0.3-2.4,0.3
		c-1.3,0-2.5-0.2-3.4-0.7c-0.9-0.5-1.7-1.1-2.3-1.9c-0.6-0.8-1.1-1.7-1.4-2.7c-0.3-1-0.4-2-0.4-3.1c0-1.1,0.2-2.2,0.5-3.2
		c0.3-1,0.8-1.9,1.5-2.7c0.6-0.8,1.4-1.4,2.3-1.8c0.9-0.5,2-0.7,3.1-0.7c1.1,0,2.1,0.2,3,0.7c0.9,0.5,1.6,1.1,2.2,1.8
		c0.6,0.8,1.1,1.6,1.4,2.6c0.3,1,0.5,1.9,0.5,2.9c0,0.5-0.1,0.8-0.3,1.1c-0.2,0.2-0.6,0.4-1.2,0.4H94.7z M103.7,123.6
		c0-0.6-0.1-1.2-0.3-1.8c-0.2-0.6-0.4-1.1-0.8-1.6c-0.3-0.5-0.8-0.9-1.4-1.2c-0.6-0.3-1.2-0.5-1.9-0.5c-0.8,0-1.6,0.1-2.1,0.4
		c-0.6,0.3-1,0.7-1.4,1.2c-0.4,0.5-0.6,1-0.8,1.6c-0.2,0.6-0.3,1.2-0.3,1.8H103.7z"/>
	<path fill="#878787" d="M130.1,130.7L130.1,130.7c-0.8,1.5-2.3,2.2-4.4,2.2c-1.1,0-2.1-0.2-3-0.7c-0.9-0.5-1.6-1.1-2.2-1.9
		c-0.6-0.8-1.1-1.7-1.4-2.7c-0.3-1-0.5-2-0.5-3.1c0-1.1,0.2-2.1,0.5-3.1c0.3-1,0.8-1.9,1.4-2.7c0.6-0.8,1.3-1.4,2.2-1.9
		c0.9-0.5,1.9-0.7,3-0.7c0.5,0,1,0.1,1.5,0.2c0.5,0.1,0.9,0.3,1.3,0.5c0.4,0.2,0.7,0.5,1,0.7c0.3,0.3,0.5,0.5,0.7,0.8h0.1v-8
		c0-0.5,0.1-0.8,0.4-1.1c0.2-0.3,0.6-0.4,1-0.4c0.4,0,0.7,0.1,1,0.4c0.2,0.3,0.4,0.6,0.4,1.1v21c0,0.5-0.1,0.8-0.4,1.1
		c-0.2,0.3-0.6,0.4-1,0.4c-0.4,0-0.7-0.1-1-0.4c-0.2-0.3-0.4-0.6-0.4-1.1V130.7z M130.4,124.6c0-0.7-0.1-1.4-0.2-2.1
		c-0.2-0.7-0.4-1.4-0.8-1.9c-0.4-0.6-0.8-1.1-1.4-1.4c-0.6-0.4-1.3-0.6-2.1-0.6c-0.8,0-1.5,0.2-2.1,0.6c-0.6,0.4-1,0.8-1.4,1.4
		c-0.4,0.6-0.6,1.2-0.8,1.9c-0.2,0.7-0.2,1.4-0.2,2.1c0,0.7,0.1,1.4,0.2,2.1c0.2,0.7,0.4,1.4,0.8,1.9c0.4,0.6,0.8,1.1,1.4,1.4
		c0.6,0.4,1.3,0.6,2.1,0.6c0.8,0,1.5-0.2,2.1-0.6c0.6-0.4,1-0.8,1.4-1.4c0.4-0.6,0.6-1.2,0.8-1.9C130.3,126,130.4,125.3,130.4,124.6
		z"/>
	<path fill="#878787" d="M146.9,117.7c0-0.4,0.1-0.8,0.4-1.1c0.2-0.3,0.6-0.4,1-0.4c0.4,0,0.7,0.1,1,0.4c0.2,0.3,0.4,0.6,0.4,1.1
		v8.7c0,2.9,1.3,4.3,3.8,4.3c2.5,0,3.8-1.4,3.8-4.3v-8.7c0-0.4,0.1-0.8,0.4-1.1c0.2-0.3,0.6-0.4,1-0.4c0.4,0,0.7,0.1,1,0.4
		c0.2,0.3,0.4,0.6,0.4,1.1v8.8c0,1.2-0.2,2.2-0.6,3c-0.4,0.8-0.9,1.5-1.5,2c-0.6,0.5-1.3,0.9-2.1,1.1c-0.8,0.2-1.6,0.3-2.4,0.3
		c-0.8,0-1.6-0.1-2.4-0.3c-0.8-0.2-1.5-0.6-2.1-1.1c-0.6-0.5-1.1-1.2-1.5-2c-0.4-0.8-0.6-1.8-0.6-3V117.7z"/>
	<path fill="#878787" d="M173.1,124.6c0-1.1,0.1-2.1,0.4-3.1c0.3-1,0.8-1.9,1.4-2.7c0.6-0.8,1.4-1.4,2.3-1.9c0.9-0.5,2-0.7,3.3-0.7
		c1.4,0,2.5,0.2,3.3,0.6c0.8,0.4,1.2,0.9,1.2,1.4c0,0.3-0.1,0.5-0.3,0.8c-0.2,0.2-0.5,0.4-0.8,0.4c-0.3,0-0.5,0-0.7-0.1
		c-0.2-0.1-0.4-0.2-0.6-0.3c-0.2-0.1-0.5-0.2-0.8-0.3c-0.3-0.1-0.7-0.1-1.1-0.1c-0.8,0-1.6,0.2-2.2,0.6c-0.6,0.4-1.1,0.8-1.5,1.4
		c-0.4,0.6-0.6,1.2-0.8,1.9c-0.2,0.7-0.3,1.4-0.3,2.1c0,0.7,0.1,1.4,0.3,2.1c0.2,0.7,0.5,1.4,0.8,1.9c0.4,0.6,0.9,1.1,1.5,1.4
		c0.6,0.4,1.3,0.6,2.2,0.6c0.5,0,0.9,0,1.2-0.1c0.3-0.1,0.6-0.2,0.8-0.3c0.2-0.1,0.4-0.2,0.6-0.3c0.2-0.1,0.4-0.1,0.6-0.1
		c0.3,0,0.6,0.1,0.8,0.3c0.2,0.2,0.3,0.5,0.3,0.8c0,0.5-0.4,1-1.1,1.4c-0.7,0.5-1.8,0.7-3.2,0.7c-1.3,0-2.3-0.2-3.3-0.7
		c-0.9-0.5-1.7-1.1-2.3-1.9c-0.6-0.8-1.1-1.7-1.4-2.7C173.3,126.7,173.1,125.7,173.1,124.6z"/>
	<path fill="#878787" d="M211.5,131.6c0,0.5-0.1,0.8-0.4,1c-0.3,0.2-0.6,0.3-0.8,0.3c-0.3,0-0.6-0.1-0.8-0.3c-0.3-0.2-0.4-0.5-0.4-1
		v-1.1h-0.1c-0.6,0.8-1.3,1.5-2,1.9c-0.8,0.4-1.6,0.6-2.5,0.6c-1.2,0-2.2-0.2-3.1-0.7c-0.9-0.5-1.7-1.1-2.3-1.9
		c-0.6-0.8-1.1-1.7-1.4-2.7c-0.3-1-0.5-2-0.5-3.1c0-1.1,0.2-2.1,0.5-3.1c0.3-1,0.8-1.9,1.4-2.7c0.6-0.8,1.4-1.4,2.3-1.9
		c0.9-0.5,1.9-0.7,3.1-0.7c0.9,0,1.8,0.2,2.5,0.6c0.7,0.4,1.4,0.9,2,1.6h0.1v-0.9c0-0.5,0.1-0.8,0.4-1c0.3-0.2,0.6-0.3,0.8-0.3
		c0.3,0,0.5,0.1,0.8,0.3c0.3,0.2,0.4,0.5,0.4,1V131.6z M199.9,124.6c0,0.7,0.1,1.4,0.2,2.1c0.2,0.7,0.4,1.4,0.8,1.9
		c0.4,0.6,0.8,1.1,1.4,1.4c0.6,0.4,1.3,0.6,2.1,0.6c0.8,0,1.5-0.2,2.1-0.6c0.6-0.4,1-0.8,1.4-1.4c0.4-0.6,0.6-1.2,0.8-1.9
		c0.2-0.7,0.2-1.4,0.2-2.1c0-0.7-0.1-1.4-0.2-2.1c-0.2-0.7-0.4-1.4-0.8-1.9c-0.4-0.6-0.8-1.1-1.4-1.4c-0.6-0.4-1.3-0.6-2.1-0.6
		c-0.8,0-1.5,0.2-2.1,0.6c-0.6,0.4-1,0.8-1.4,1.4c-0.4,0.6-0.6,1.2-0.8,1.9C200,123.2,199.9,123.9,199.9,124.6z"/>
	<path fill="#878787" d="M226.3,112.9c0-0.5,0.1-0.8,0.4-1.1c0.2-0.3,0.6-0.4,1-0.4c0.4,0,0.7,0.1,1,0.4c0.2,0.3,0.4,0.6,0.4,1.1
		v3.5h1.1c0.9,0,1.4,0.4,1.4,1.2c0,0.8-0.5,1.2-1.4,1.2H229v12.8c0,0.5-0.1,0.8-0.4,1.1c-0.2,0.3-0.6,0.4-1,0.4
		c-0.4,0-0.7-0.1-1-0.4c-0.2-0.3-0.4-0.6-0.4-1.1v-12.8h-1.1c-0.9,0-1.4-0.4-1.4-1.2c0-0.8,0.5-1.2,1.4-1.2h1.1V112.9z"/>
	<path fill="#878787" d="M243.5,112.3c0-0.5,0.2-0.9,0.5-1.2c0.3-0.3,0.7-0.5,1.2-0.5c0.5,0,0.9,0.2,1.2,0.5
		c0.3,0.3,0.5,0.7,0.5,1.2c0,0.5-0.2,0.9-0.5,1.2c-0.3,0.3-0.7,0.5-1.2,0.5c-0.5,0-0.9-0.2-1.2-0.5
		C243.7,113.2,243.5,112.8,243.5,112.3z M246.5,131.5c0,0.5-0.1,0.8-0.4,1.1c-0.2,0.3-0.6,0.4-1,0.4c-0.4,0-0.7-0.1-1-0.4
		c-0.2-0.3-0.4-0.6-0.4-1.1v-13.8c0-0.4,0.1-0.8,0.4-1.1c0.2-0.3,0.6-0.4,1-0.4c0.4,0,0.7,0.1,1,0.4c0.2,0.3,0.4,0.6,0.4,1.1V131.5z
		"/>
	<path fill="#878787" d="M259.8,124.6c0-1.1,0.2-2.1,0.5-3.1c0.3-1,0.8-1.9,1.4-2.7c0.6-0.8,1.4-1.4,2.3-1.9
		c0.9-0.5,1.9-0.7,3.1-0.7c1.2,0,2.2,0.2,3.1,0.7c0.9,0.5,1.7,1.1,2.3,1.9c0.6,0.8,1.1,1.7,1.4,2.7c0.3,1,0.5,2.1,0.5,3.1
		c0,1.1-0.2,2.1-0.5,3.1c-0.3,1-0.8,1.9-1.4,2.7c-0.6,0.8-1.4,1.4-2.3,1.9c-0.9,0.5-1.9,0.7-3.1,0.7c-1.2,0-2.2-0.2-3.1-0.7
		c-0.9-0.5-1.7-1.1-2.3-1.9c-0.6-0.8-1.1-1.7-1.4-2.7C259.9,126.7,259.8,125.7,259.8,124.6z M262.5,124.6c0,0.7,0.1,1.4,0.2,2.1
		c0.2,0.7,0.4,1.4,0.8,1.9c0.4,0.6,0.8,1.1,1.4,1.4c0.6,0.4,1.3,0.6,2.1,0.6c0.8,0,1.5-0.2,2.1-0.6c0.6-0.4,1-0.8,1.4-1.4
		c0.4-0.6,0.6-1.2,0.8-1.9c0.2-0.7,0.2-1.4,0.2-2.1c0-0.7-0.1-1.4-0.2-2.1c-0.2-0.7-0.4-1.4-0.8-1.9c-0.4-0.6-0.8-1.1-1.4-1.4
		c-0.6-0.4-1.3-0.6-2.1-0.6c-0.8,0-1.6,0.2-2.1,0.6c-0.6,0.4-1,0.8-1.4,1.4c-0.4,0.6-0.6,1.2-0.8,1.9
		C262.5,123.2,262.5,123.9,262.5,124.6z"/>
	<path fill="#878787" d="M287.4,117.7c0-0.4,0.1-0.8,0.4-1.1c0.2-0.3,0.6-0.4,1-0.4c0.4,0,0.7,0.1,1,0.4c0.2,0.3,0.4,0.6,0.4,1.1
		v0.6l0.1,0.1c0.6-0.8,1.3-1.3,2.1-1.7c0.8-0.3,1.6-0.5,2.4-0.5c0.6,0,1.3,0.1,2,0.3c0.7,0.2,1.3,0.6,1.8,1.1c0.6,0.5,1,1.1,1.4,1.9
		c0.4,0.8,0.5,1.8,0.5,2.9v9.1c0,0.5-0.1,0.8-0.4,1.1c-0.2,0.3-0.6,0.4-1,0.4c-0.4,0-0.7-0.1-1-0.4c-0.2-0.3-0.4-0.6-0.4-1.1v-8.9
		c0-0.7-0.1-1.3-0.3-1.8c-0.2-0.5-0.5-0.9-0.9-1.2c-0.4-0.3-0.8-0.6-1.2-0.7c-0.5-0.2-0.9-0.2-1.4-0.2c-0.5,0-0.9,0.1-1.4,0.2
		c-0.5,0.2-0.9,0.4-1.2,0.7c-0.4,0.3-0.7,0.7-0.9,1.2c-0.2,0.5-0.3,1.1-0.3,1.8v8.9c0,0.5-0.1,0.8-0.4,1.1c-0.2,0.3-0.6,0.4-1,0.4
		c-0.4,0-0.7-0.1-1-0.4c-0.2-0.3-0.4-0.6-0.4-1.1V117.7z"/>
</g>
</svg>
