<?xml version="1.0" encoding="UTF-8" standalone="no"?>
<!-- Created with Inkscape (http://www.inkscape.org/) -->

<svg
   xmlns:dc="http://purl.org/dc/elements/1.1/"
   xmlns:cc="http://creativecommons.org/ns#"
   xmlns:rdf="http://www.w3.org/1999/02/22-rdf-syntax-ns#"
   xmlns:svg="http://www.w3.org/2000/svg"
   xmlns="http://www.w3.org/2000/svg"
   version="1.1"
   width="55"
   height="55"
   id="svg2"
   xml:space="preserve"><metadata
     id="metadata11"><rdf:RDF><cc:Work
         rdf:about=""><dc:format>image/svg+xml</dc:format><dc:type
           rdf:resource="http://purl.org/dc/dcmitype/StillImage" /><dc:title></dc:title></cc:Work></rdf:RDF></metadata><defs
     id="defs9" /><rect
     width="51.708038"
     height="51.708042"
     x="1.64598"
     y="1.6459779"
     id="rect3756"
     style="fill:#000000;fill-opacity:1;fill-rule:nonzero;stroke:#000000;stroke-width:3.29196;stroke-linecap:round;stroke-linejoin:round;stroke-miterlimit:4;stroke-opacity:1;stroke-dasharray:none;stroke-dashoffset:0" /><g
     transform="matrix(0.18046533,0,0,-0.18046533,48.547125,6.4014883)"
     id="g20-5-4"
     style="fill:#ffffff;fill-opacity:1"><path
       d="m -24.84375,1.59375 c -15.769421,0.2660059 -20.34375,4.8125 -20.34375,4.8125 0,0 2.565608,4.932341 2.03125,12.28125 -0.534358,7.351977 -2.692289,13.505648 -0.6875,18.71875 1.999375,5.194875 5.738944,9.719416 19.65625,15.96875 l 0.0625,0.03125 0.0625,-0.03125 C -10.142126,47.125666 -6.402377,42.601125 -4.40625,37.40625 -2.4009193,32.193148 -4.5590312,26.039477 -5.09375,18.6875 -5.6288297,11.338591 -3.0625,6.40625 -3.0625,6.40625 c 0,0 -4.5461463,-4.5464941 -20.3125,-4.8125 l -1.46875,0 z m 0.71875,8.4375 c 2.527778,0 4.5625,2.06146 4.5625,4.59375 0,2.53229 -2.034722,4.5625 -4.5625,4.5625 -2.525612,0 -4.5625,-2.03021 -4.5625,-4.5625 0,-2.53229 2.036888,-4.59375 4.5625,-4.59375 z m -7.1875,8.34375 c 0.617124,-0.01908 1.230562,0.198139 1.6875,0.65625 l 5.5,5.5 5.5,-5.5 c 0.910809,-0.916222 2.431737,-0.880943 3.40625,0.09375 0.966031,0.971625 1.007446,2.52236 0.09375,3.4375 l -5.5,5.5 5.40625,5.4375 c 0.913696,0.916403 0.875349,2.434444 -0.09375,3.40625 -0.972528,0.974513 -2.492554,1.038876 -3.40625,0.125 l -5.40625,-5.4375 -5.40625,5.4375 c -0.913696,0.913876 -2.431015,0.849513 -3.40625,-0.125 -0.96585,-0.971806 -1.009792,-2.489847 -0.09375,-3.40625 l 5.40625,-5.4375 -5.53125,-5.5 c -0.913516,-0.91514 -0.84446,-2.465875 0.125,-3.4375 0.485903,-0.487347 1.101626,-0.730916 1.71875,-0.75 z"
       transform="matrix(5.5412306,0,0,-5.5412306,17.055215,35.472124)"
       id="path22-7-1"
       style="fill:#ffffff;fill-opacity:1" /></g><g
     transform="matrix(0.18046533,0,0,-0.18046533,-20.611012,28.072139)"
     id="g24-9-8" /><g
     transform="matrix(0.18046533,0,0,-0.18046533,-19.550745,14.61582)"
     id="g28-8-7" /></svg>