<?xml version="1.0" encoding="UTF-8" standalone="no"?>
<!-- Created with Inkscape (http://www.inkscape.org/) -->

<svg
   xmlns:dc="http://purl.org/dc/elements/1.1/"
   xmlns:cc="http://creativecommons.org/ns#"
   xmlns:rdf="http://www.w3.org/1999/02/22-rdf-syntax-ns#"
   xmlns:svg="http://www.w3.org/2000/svg"
   xmlns="http://www.w3.org/2000/svg"
   version="1.1"
   width="55"
   height="55"
   viewBox="0 0 55 55"
   id="svg5032"
   xml:space="preserve"><metadata
     id="metadata5041"><rdf:RDF><cc:Work
         rdf:about=""><dc:format>image/svg+xml</dc:format><dc:type
           rdf:resource="http://purl.org/dc/dcmitype/StillImage" /><dc:title></dc:title></cc:Work></rdf:RDF></metadata><defs
     id="defs5039" /><rect
     width="53.205719"
     height="53.205719"
     x="0.8971414"
     y="0.89713961"
     id="rect5043"
     style="fill:#000000;fill-opacity:1;fill-rule:nonzero;stroke:#000000;stroke-width:1.79428279;stroke-linecap:round;stroke-linejoin:round;stroke-miterlimit:4;stroke-opacity:1;stroke-dasharray:none;stroke-dashoffset:0" /><g
     id="view-expand"
     style="fill:#ffffff;fill-opacity:1;display:block"><path
       d="m 4.875,5 v 45 h 45 V 5 h -45 z M 23.638,44.051 H 12.574 c -0.071,0 -0.141,-0.013 -0.21,-0.021 -0.042,-0.005 -0.084,-0.004 -0.126,-0.013 -0.033,-0.007 -0.064,-0.02 -0.097,-0.028 -0.079,-0.021 -0.158,-0.04 -0.234,-0.071 -0.013,-0.006 -0.025,-0.015 -0.038,-0.021 -0.09,-0.04 -0.178,-0.084 -0.262,-0.14 C 11.511,43.694 11.42,43.62 11.338,43.538 11.255,43.455 11.181,43.363 11.116,43.266 11.086,43.22 11.065,43.17 11.04,43.122 11.012,43.07 10.98,43.02 10.957,42.965 10.925,42.889 10.905,42.809 10.885,42.73 10.877,42.7 10.864,42.67 10.858,42.639 c -0.019,-0.098 -0.027,-0.196 -0.029,-0.296 0,-0.015 -0.004,-0.028 -0.004,-0.043 V 31.236 c 0,-0.969 0.783,-1.751 1.749,-1.751 0.968,0 1.751,0.782 1.751,1.751 v 6.839 l 8.012,-8.015 c 0.684,-0.682 1.792,-0.682 2.476,0 0.682,0.684 0.682,1.792 0,2.477 L 16.8,40.549 h 6.838 v 0.003 c 0.966,0 1.75,0.782 1.75,1.748 10e-4,0.967 -0.784,1.751 -1.75,1.751 z M 42.573,25.114 c -0.968,0 -1.751,-0.783 -1.751,-1.751 v -6.84 l -9.013,9.013 c -0.342,0.342 -0.79,0.513 -1.238,0.513 -0.447,0 -0.896,-0.171 -1.237,-0.513 -0.683,-0.684 -0.683,-1.791 0,-2.475 l 9.011,-9.012 h -6.834 c -0.966,0 -1.751,-0.785 -1.751,-1.751 0,-0.966 0.785,-1.751 1.751,-1.751 h 11.062 c 0.104,0 0.209,0.012 0.312,0.031 0.007,0.001 0.015,0.001 0.021,0.002 0.055,0.011 0.106,0.031 0.16,0.047 0.058,0.017 0.116,0.03 0.172,0.053 0.032,0.013 0.062,0.033 0.093,0.049 0.071,0.034 0.144,0.067 0.21,0.112 0.057,0.037 0.105,0.083 0.156,0.127 0.037,0.031 0.077,0.057 0.112,0.091 0.047,0.047 0.083,0.101 0.124,0.152 0.03,0.039 0.066,0.074 0.094,0.115 0.061,0.091 0.11,0.187 0.151,0.285 0.003,0.006 0.007,0.011 0.01,0.017 0.034,0.083 0.057,0.168 0.077,0.255 0.007,0.025 0.018,0.05 0.022,0.076 0.012,0.061 0.014,0.124 0.019,0.186 0.005,0.051 0.016,0.102 0.016,0.153 l 0.002,11.065 c 0,0.969 -0.784,1.751 -1.751,1.751 z"
       id="path5035"
       style="fill:#ffffff;fill-opacity:1" /></g></svg>