<?xml version="1.0" encoding="UTF-8" standalone="no"?>
<!-- Created with Inkscape (http://www.inkscape.org/) -->

<svg
   xmlns:dc="http://purl.org/dc/elements/1.1/"
   xmlns:cc="http://creativecommons.org/ns#"
   xmlns:rdf="http://www.w3.org/1999/02/22-rdf-syntax-ns#"
   xmlns:svg="http://www.w3.org/2000/svg"
   xmlns="http://www.w3.org/2000/svg"
   version="1.1"
   width="55"
   height="55"
   viewBox="0 0 55 55"
   id="svg8630"
   xml:space="preserve"><metadata
     id="metadata8638"><rdf:RDF><cc:Work
         rdf:about=""><dc:format>image/svg+xml</dc:format><dc:type
           rdf:resource="http://purl.org/dc/dcmitype/StillImage" /><dc:title></dc:title></cc:Work></rdf:RDF></metadata><defs
     id="defs8636" /><path
     d="m -13.050848,33.559322 a 25.98517,21.90678 0 1 1 -51.970341,0 25.98517,21.90678 0 1 1 51.970341,0 z"
     transform="matrix(1.015724,0,0,1.2048215,67.149822,-12.932993)"
     id="path2988"
     style="fill:#000000;fill-opacity:1;fill-rule:nonzero;stroke:#000000;stroke-width:2;stroke-linecap:round;stroke-linejoin:round;stroke-miterlimit:4;stroke-opacity:1;stroke-dasharray:none;stroke-dashoffset:0" /><g
     id="zoom-neighborhood"
     style="fill:#ffffff;fill-opacity:1;display:block"><path
       d="M 27.5,5 C 15.074,5 5,15.074 5,27.5 5,39.927 15.074,50 27.5,50 39.927,50 50,39.927 50,27.5 50,15.074 39.927,5 27.5,5 z m 10.104,8.904 c 2.096,0 3.795,1.699 3.795,3.794 0,2.096 -1.699,3.794 -3.795,3.794 -2.096,0 -3.794,-1.699 -3.794,-3.794 0,-2.095 1.7,-3.794 3.794,-3.794 z M 9.626,27.501 c 0,-2.099 1.7,-3.799 3.793,-3.799 2.097,0 3.796,1.7 3.796,3.799 0,2.095 -1.7,3.793 -3.796,3.793 -2.095,0 -3.793,-1.698 -3.793,-3.793 z m 7.765,13.595 c -2.093,0 -3.793,-1.695 -3.793,-3.792 0,-2.099 1.701,-3.796 3.793,-3.796 2.099,0 3.799,1.696 3.799,3.796 -0.001,2.095 -1.701,3.792 -3.799,3.792 z m 0.307,-19.901 c -2.094,0 -3.795,-1.7 -3.795,-3.799 0,-2.096 1.7,-3.795 3.795,-3.795 2.099,0 3.796,1.701 3.796,3.795 0.001,2.099 -1.696,3.799 -3.796,3.799 z m 9.801,24.179 c -2.1,0 -3.797,-1.7 -3.797,-3.794 0,-2.098 1.696,-3.797 3.797,-3.797 2.095,0 3.794,1.699 3.794,3.797 0,2.096 -1.699,3.794 -3.794,3.794 z m 0.002,-28.157 c -2.096,0 -3.795,-1.699 -3.795,-3.795 0,-2.096 1.699,-3.795 3.795,-3.795 2.097,0 3.795,1.699 3.795,3.795 0,2.096 -1.698,3.795 -3.795,3.795 z m 9.8,24.184 c -2.096,0 -3.795,-1.699 -3.795,-3.795 0,-2.096 1.699,-3.794 3.795,-3.794 2.096,0 3.794,1.698 3.794,3.794 0,2.096 -1.699,3.795 -3.794,3.795 z m 4.28,-10.103 c -2.096,0 -3.795,-1.698 -3.795,-3.795 0,-2.096 1.699,-3.793 3.799,-3.793 2.094,0 3.791,1.697 3.791,3.793 0,2.097 -1.697,3.795 -3.795,3.795 z"
       id="zoom-neighborhood_3_"
       style="fill:#ffffff;fill-opacity:1" /></g></svg>