<?xml version="1.0" encoding="UTF-8" standalone="no"?>
<!-- Created with Inkscape (http://www.inkscape.org/) -->

<svg
   xmlns:dc="http://purl.org/dc/elements/1.1/"
   xmlns:cc="http://creativecommons.org/ns#"
   xmlns:rdf="http://www.w3.org/1999/02/22-rdf-syntax-ns#"
   xmlns:svg="http://www.w3.org/2000/svg"
   xmlns="http://www.w3.org/2000/svg"
   version="1.1"
   width="55"
   height="55"
   viewBox="0 0 55 55"
   id="svg8048"
   xml:space="preserve"><metadata
     id="metadata8056"><rdf:RDF><cc:Work
         rdf:about=""><dc:format>image/svg+xml</dc:format><dc:type
           rdf:resource="http://purl.org/dc/dcmitype/StillImage" /><dc:title></dc:title></cc:Work></rdf:RDF></metadata><defs
     id="defs8054" /><path
     d="m -13.050848,33.559322 a 25.98517,21.90678 0 1 1 -51.970341,0 25.98517,21.90678 0 1 1 51.970341,0 z"
     transform="matrix(1.015724,0,0,1.2048215,67.149821,-12.932993)"
     id="path2988"
     style="fill:#000000;fill-opacity:1;fill-rule:nonzero;stroke:#000000;stroke-width:2;stroke-linecap:round;stroke-linejoin:round;stroke-miterlimit:4;stroke-opacity:1;stroke-dasharray:none;stroke-dashoffset:0" /><g
     id="zoom-home"
     style="fill:#ffffff;fill-opacity:1;display:block"><path
       d="M 27.5,5 C 15.074,5 5,15.073 5,27.5 5,39.926 15.074,50 27.5,50 39.928,50 50,39.926 50,27.5 50,15.073 39.926,5 27.5,5 z m -0.003,27.251 c -2.621,0 -4.749,-2.131 -4.749,-4.75 0,-2.624 2.128,-4.75 4.749,-4.75 2.628,0 4.757,2.126 4.757,4.75 0,2.619 -2.129,4.75 -4.757,4.75 z"
       id="zoom-home_1_"
       style="fill:#ffffff;fill-opacity:1;display:inline" /></g></svg>