<?xml version="1.0" encoding="UTF-8" standalone="no"?>
<!-- Created with Inkscape (http://www.inkscape.org/) -->

<svg
   xmlns:dc="http://purl.org/dc/elements/1.1/"
   xmlns:cc="http://creativecommons.org/ns#"
   xmlns:rdf="http://www.w3.org/1999/02/22-rdf-syntax-ns#"
   xmlns:svg="http://www.w3.org/2000/svg"
   xmlns="http://www.w3.org/2000/svg"
   version="1.1"
   width="55"
   height="55"
   viewBox="0 0 55 55"
   id="svg7466"
   xml:space="preserve"><metadata
     id="metadata7474"><rdf:RDF><cc:Work
         rdf:about=""><dc:format>image/svg+xml</dc:format><dc:type
           rdf:resource="http://purl.org/dc/dcmitype/StillImage" /><dc:title></dc:title></cc:Work></rdf:RDF></metadata><defs
     id="defs7472" /><path
     d="m -13.050848,33.559322 a 25.98517,21.90678 0 1 1 -51.970341,0 25.98517,21.90678 0 1 1 51.970341,0 z"
     transform="matrix(1.015724,0,0,1.2048215,67.149821,-12.932993)"
     id="path2988"
     style="fill:#000000;fill-opacity:1;fill-rule:nonzero;stroke:#000000;stroke-width:2;stroke-linecap:round;stroke-linejoin:round;stroke-miterlimit:4;stroke-opacity:1;stroke-dasharray:none;stroke-dashoffset:0" /><g
     id="zoom-groups"
     style="fill:#ffffff;fill-opacity:1;display:block"><path
       d="M 27.5,5 C 15.074,5 5,15.074 5,27.5 5,39.926 15.074,50 27.5,50 39.926,50 50,39.926 50,27.5 50,15.074 39.926,5 27.5,5 z m -8.741,32.955 c -2.618,0 -4.745,-2.127 -4.745,-4.746 0,-2.621 2.125,-4.745 4.745,-4.745 2.62,0 4.748,2.124 4.748,4.745 -0.001,2.619 -2.128,4.746 -4.748,4.746 z M 27.5,22.625 c -2.621,0 -4.746,-2.125 -4.746,-4.747 0,-2.618 2.125,-4.742 4.746,-4.742 2.623,0 4.748,2.123 4.748,4.742 -0.002,2.623 -2.127,4.747 -4.748,4.747 z m 8.738,15.328 c -2.619,0 -4.744,-2.125 -4.744,-4.744 0,-2.621 2.125,-4.746 4.744,-4.746 2.623,0 4.748,2.125 4.748,4.746 0,2.619 -2.125,4.744 -4.748,4.744 z"
       id="zoom-groups_2_"
       style="fill:#ffffff;fill-opacity:1;display:inline" /></g></svg>