<?xml version="1.0" encoding="utf-8"?>
<!-- Generator: Adobe Illustrator 17.1.0, SVG Export Plug-In . SVG Version: 6.00 Build 0)  -->
<!DOCTYPE svg PUBLIC "-//W3C//DTD SVG 1.1//EN" "http://www.w3.org/Graphics/SVG/1.1/DTD/svg11.dtd">
<svg version="1.1" id="Layer_1" xmlns="http://www.w3.org/2000/svg" xmlns:xlink="http://www.w3.org/1999/xlink" x="0px" y="0px"
	 viewBox="0 0 55 55" enable-background="new 0 0 55 55" xml:space="preserve">
<g>
	<path fill="#A0A0A0" d="M27.5,50.1C15.2,50.1,5,40,5,27.6S15.2,5.1,27.5,5.1S50,15.3,50,27.6c-0.2,12.4-9.6,21.9-21.9,22.5
		L27.5,50.1z M27,34.8c1.4,0.1,2.9-0.7,3.3-2.1c0.2-0.8,0.1-1.8,0.1-2.6c2.5-0.6,4.9-1.9,6.3-4c1.9-2.7,1.9-6.7,0.4-9.6
		c-1.9-3.5-5.8-5.1-9.7-5.1c-2.1,0-4.3,0.6-6.1,1.7c-2.3,1.4-4.4,3.9-3.7,6.7c0.2,0.8,0.6,1.5,1.3,1.9c2.4,1.4,4.1-1.5,5.6-2.9
		c0.9-0.8,2.1-1.4,3.3-1.2c1.4,0.2,2.8,1.1,3.3,2.5c0.2,0.5,0.2,1,0.1,1.6c-0.2,1.8-1.6,2.5-3.2,3c-1.4,0.4-3.9,0.6-4,2.5h0v4.5
		c0,1.7,1.1,2.8,2.7,3.1L27,34.8z M27,44.4c2,0.1,3.7-1.5,3.7-3.5c0-1.9-1.6-3.5-3.5-3.5c-1.9,0-3.7,1.7-3.5,3.7
		c0.1,1.7,1.3,2.9,3,3.3L27,44.4z"/>
</g>
</svg>
