<?xml version="1.0" ?><!-- Created with Inkscape (http://www.inkscape.org/) --><!DOCTYPE svg  PUBLIC '-//W3C//DTD SVG 1.1//EN'  'http://www.w3.org/Graphics/SVG/1.1/DTD/svg11.dtd' [
	<!ENTITY stroke_color "#666666">
	<!ENTITY fill_color "#ffffff">
]><svg height="55" id="Layer_1" version="1.1" viewBox="0 0 55 55" width="55" xml:space="preserve" xmlns="http://www.w3.org/2000/svg" xmlns:cc="http://creativecommons.org/ns#" xmlns:dc="http://purl.org/dc/elements/1.1/" xmlns:rdf="http://www.w3.org/1999/02/22-rdf-syntax-ns#" xmlns:svg="http://www.w3.org/2000/svg"><metadata id="metadata15"><rdf:RDF><cc:Work rdf:about=""><dc:format>image/svg+xml</dc:format><dc:type rdf:resource="http://purl.org/dc/dcmitype/StillImage"/><dc:title/></cc:Work></rdf:RDF></metadata><defs id="defs13"/><g id="g3" style="fill:&fill_color;;fill-opacity:1;stroke:&stroke_color;;stroke-width:3.65086532;stroke-miterlimit:4;stroke-opacity:1;stroke-dasharray:none" transform="matrix(0.68476915,0,0,0.68476915,-6.9659582,-6.5343963)"><path d="m 68.044,73.861 h -9.539 c -1.014,0 -2.113,-0.783 -2.444,-1.741 0,0 -1.519,-4.402 -2.538,-9.497 -0.452,-2.258 -0.865,-4.63 -0.865,-4.63 -0.174,-0.998 0.345,-2.315 1.154,-2.926 0,0 13.119,-9.91 15.079,-19.711 1.782,-8.907 1.253,-21.282 1.253,-21.282 -0.043,-1.012 -0.907,-1.841 -1.921,-1.841 h -35.78 c -1.014,0 -1.878,0.829 -1.921,1.841 0,0 -0.528,12.375 1.253,21.282 1.96,9.801 15.08,19.712 15.08,19.712 0.809,0.61 1.328,1.928 1.154,2.926 0,0 -0.414,2.371 -0.865,4.629 -1.019,5.095 -2.539,9.497 -2.539,9.497 -0.331,0.958 -1.431,1.741 -2.444,1.741 h -9.54 c -1.013,0 -1.843,0.83 -1.843,1.844 v 9.623 c 0,1.014 0.83,1.843 1.843,1.843 h 35.422 c 1.014,0 1.844,-0.829 1.844,-1.843 v -9.623 c 0.001,-1.014 -0.829,-1.844 -1.843,-1.844 z m -7.473,7.66 c 0,0.507 -0.416,0.921 -0.922,0.921 H 41.017 c -0.506,0 -0.921,-0.414 -0.921,-0.921 v -4.71 c 0,-0.507 0.415,-0.922 0.921,-0.922 H 59.65 c 0.506,0 0.922,0.415 0.922,0.922 v 4.71 z" id="path5" style="fill:&fill_color;;fill-opacity:1;stroke:&stroke_color;;stroke-width:3.65086532;stroke-miterlimit:4;stroke-opacity:1;stroke-dasharray:none"/><path d="m 81.769,24.833 c -0.225,-0.938 -0.543,-1.874 -1.059,-2.82 -0.52,-0.975 -1.363,-1.958 -2.394,-2.588 -1.03,-0.645 -2.211,-0.958 -3.309,-0.966 -1.103,-0.016 -2.13,0.239 -3.026,0.652 -0.184,0.085 -0.184,0.085 -0.184,0.085 -0.193,0.107 -0.355,0.609 -0.361,1.116 l -0.025,1.296 c -0.012,0.506 0.383,0.831 0.877,0.721 0,0 0.121,-0.027 0.607,-0.044 0.609,-0.018 1.172,0.062 1.628,0.235 0.229,0.08 0.429,0.193 0.601,0.31 0.172,0.114 0.315,0.246 0.434,0.389 0.12,0.141 0.219,0.292 0.307,0.457 0.044,0.082 0.044,0.082 0.044,0.082 0.042,0.099 0.084,0.201 0.095,0.227 0.01,0.025 0.042,0.109 0.049,0.129 0.006,0.02 0.014,0.039 0.014,0.042 0.001,0.002 0.002,0.005 0.003,0.007 0.001,0.001 -10e-4,0 -0.003,-0.003 -10e-4,-0.003 -0.006,-0.009 -0.002,0 0.004,0.01 0.014,0.033 0.021,0.051 0.007,0.019 0.126,0.434 0.263,0.921 0,0 0.045,0.16 0.129,0.758 0.166,1.208 0.176,2.541 0.029,3.833 -0.145,1.285 -0.454,2.575 -0.904,3.551 -0.111,0.242 -0.23,0.456 -0.342,0.638 -0.061,0.094 -0.101,0.156 -0.174,0.249 -0.08,0.098 -0.16,0.19 -0.256,0.289 -0.369,0.392 -0.802,0.752 -1.25,1.028 -0.902,0.555 -1.827,0.83 -2.96,0.669 -0.201,-0.028 -0.201,-0.028 -0.201,-0.028 -0.229,-0.058 -0.525,0.294 -0.657,0.784 l -0.489,1.592 c -0.169,0.478 -0.192,0.938 -0.051,1.023 0,0 0,0 0.138,0.069 0.904,0.46 1.968,0.75 3.05,0.779 1.084,0.042 2.161,-0.171 3.141,-0.533 0.981,-0.373 1.87,-0.886 2.679,-1.528 0.198,-0.16 0.402,-0.338 0.596,-0.521 0.199,-0.189 0.417,-0.423 0.596,-0.638 0.368,-0.439 0.67,-0.89 0.926,-1.341 0.514,-0.902 0.867,-1.808 1.137,-2.713 0.268,-0.905 0.447,-1.812 0.555,-2.722 0.204,-1.826 0.163,-3.665 -0.272,-5.537 z" id="path7" style="fill:&fill_color;;fill-opacity:1;stroke:&stroke_color;;stroke-width:3.65086532;stroke-miterlimit:4;stroke-opacity:1;stroke-dasharray:none"/><path d="m 31.445,39.513 c 0.141,-0.085 0.119,-0.546 -0.051,-1.024 l -0.49,-1.591 c -0.131,-0.489 -0.427,-0.842 -0.657,-0.784 0,0 0,0 -0.201,0.028 -1.133,0.161 -2.058,-0.114 -2.96,-0.669 -0.448,-0.275 -0.881,-0.636 -1.25,-1.028 -0.095,-0.099 -0.176,-0.191 -0.255,-0.289 -0.074,-0.093 -0.114,-0.154 -0.175,-0.249 -0.111,-0.182 -0.23,-0.396 -0.341,-0.637 -0.45,-0.976 -0.761,-2.267 -0.905,-3.552 -0.146,-1.292 -0.137,-2.625 0.03,-3.833 0.083,-0.598 0.128,-0.758 0.128,-0.758 0.137,-0.488 0.255,-0.902 0.263,-0.921 0.008,-0.019 0.017,-0.042 0.02,-0.051 0.004,-0.01 0,-0.004 -0.002,0 -0.002,0.003 -0.003,0.005 -0.002,0.003 0,-0.001 10e-4,-0.004 0.002,-0.007 0.001,-0.003 0.007,-0.021 0.014,-0.041 0.007,-0.02 0.04,-0.104 0.049,-0.129 0.01,-0.026 0.053,-0.127 0.094,-0.227 0,0 0,0 0.044,-0.082 0.087,-0.166 0.186,-0.316 0.306,-0.457 0.118,-0.144 0.261,-0.275 0.434,-0.389 0.172,-0.116 0.371,-0.229 0.6,-0.31 0.456,-0.172 1.019,-0.253 1.627,-0.235 0.486,0.018 0.608,0.045 0.608,0.045 0.494,0.11 0.889,-0.214 0.877,-0.721 l -0.025,-1.296 c -0.006,-0.507 -0.168,-1.009 -0.361,-1.116 0,0 0,0 -0.184,-0.085 -0.897,-0.413 -1.924,-0.668 -3.026,-0.652 -1.098,0.008 -2.278,0.322 -3.309,0.966 -1.031,0.63 -1.875,1.614 -2.393,2.588 -0.517,0.947 -0.834,1.882 -1.06,2.82 -0.435,1.872 -0.476,3.711 -0.266,5.532 0.107,0.911 0.287,1.817 0.555,2.722 0.269,0.905 0.623,1.811 1.136,2.713 0.256,0.451 0.557,0.902 0.925,1.341 0.18,0.214 0.397,0.449 0.596,0.638 0.194,0.184 0.398,0.361 0.597,0.521 0.808,0.643 1.697,1.156 2.678,1.528 0.979,0.362 2.057,0.575 3.141,0.533 1.082,-0.029 2.145,-0.319 3.05,-0.779 0.139,-0.066 0.139,-0.066 0.139,-0.066 z" id="path9" style="fill:&fill_color;;fill-opacity:1;stroke:&stroke_color;;stroke-width:3.65086532;stroke-miterlimit:4;stroke-opacity:1;stroke-dasharray:none"/></g><g id="stock-xo_1_" style="fill:&fill_color;;fill-opacity:1;stroke:&stroke_color;;stroke-opacity:1;display:block" transform="matrix(0.39620698,0,0,0.39620698,16.654032,4.6651576)"><path d="m 33.233,35.1 10.102,10.1 c 0.752,0.75 1.217,1.783 1.217,2.932 0,2.287 -1.855,4.143 -4.146,4.143 -1.145,0 -2.178,-0.463 -2.932,-1.211 l -10.102,-10.103 -10.1,10.1 c -0.75,0.75 -1.787,1.211 -2.934,1.211 -2.284,0 -4.143,-1.854 -4.143,-4.141 0,-1.146 0.465,-2.184 1.212,-2.934 L 21.511,35.095 11.409,24.995 c -0.747,-0.748 -1.212,-1.785 -1.212,-2.93 0,-2.289 1.854,-4.146 4.146,-4.146 1.143,0 2.18,0.465 2.93,1.214 L 27.372,29.235 37.474,19.132 c 0.754,-0.749 1.787,-1.214 2.934,-1.214 2.289,0 4.146,1.856 4.146,4.145 0,1.146 -0.467,2.18 -1.217,2.932 L 33.233,35.1 z" id="path3830" style="fill:&stroke_color;;fill-opacity:1;stroke:&stroke_color;;stroke-width:3.5;stroke-opacity:1"/><circle cx="27.371" cy="10.849" id="circle3832" r="8.1219997" style="fill:&stroke_color;;fill-opacity:1;stroke:&stroke_color;;stroke-width:3.5;stroke-opacity:1"/></g></svg>
